<?xml version="1.0" encoding="UTF-8" standalone="no"?>
<svg width="25px" height="25px" viewBox="0 0 25 25" version="1.1" xmlns="http://www.w3.org/2000/svg" xmlns:xlink="http://www.w3.org/1999/xlink" xmlns:sketch="http://www.bohemiancoding.com/sketch/ns">
    <!-- Generator: Sketch 3.3.2 (12043) - http://www.bohemiancoding.com/sketch -->
    <title>Hong Kong</title>
    <desc>Created with Sketch.</desc>
    <defs>
        <circle id="path-1" cx="11.5" cy="11.5" r="11.5"></circle>
    </defs>
    <g id="Page-1" stroke="none" stroke-width="1" fill="none" fill-rule="evenodd" sketch:type="MSPage">
        <g id="Sign-Up-with-Phone-/-Select-region" sketch:type="MSArtboardGroup" transform="translate(-376.000000, -386.000000)">
            <g id="Sign-Up-Form" sketch:type="MSLayerGroup" transform="translate(362.000000, 230.000000)">
                <g id="phone-Input">
                    <g id="selecting" transform="translate(0.000000, 45.000000)">
                        <g id="中国香港-(Hong-Kong)-+-flag" transform="translate(0.000000, 109.000000)">
                            <g id="Hong-Kong" transform="translate(15.000000, 3.000000)">
                                <mask id="mask-2" sketch:name="Oval 1" fill="white">
                                    <use xlink:href="#path-1"></use>
                                </mask>
                                <use id="Oval-1" stroke="#D9D9D9" fill="#DE2910" sketch:type="MSShapeGroup" xlink:href="#path-1"></use>
                                <path d="M13.2644878,4.17168889 C12.5816434,4.52435556 12.3035989,5.30277778 12.7676878,5.9754 C12.9639545,6.26008889 13.0697545,6.6424 13.0503323,7.03902222 C13.0252878,7.43973333 12.9056878,7.82766667 12.5821545,8.18953333 C12.0889323,8.85551111 11.1658656,8.89128889 10.9920878,9.89051111 C10.9506878,10.3484667 11.0201989,10.7982444 11.3493545,11.2096889 C10.8341545,10.7205556 10.5003989,10.1838889 10.3894878,9.58946667 C10.2739767,8.97051111 10.3986878,8.28613333 10.80911,7.52457778 L10.7273323,7.48062222 C10.3061767,8.2616 10.17891,8.96642222 10.29851,9.60633333 C10.4150434,10.2314222 10.76771,10.7926222 11.3120434,11.3016889 C10.3761989,10.7573556 9.77155448,10.1092667 9.36471004,9.0712 C8.83826559,7.19133333 9.71379893,5.19084444 11.5379545,4.42264444 C12.0868878,4.19162222 12.6639323,4.117 13.2644878,4.17168889 L13.2644878,4.17168889 Z M5.2323767,7.59715556 C5.00084337,8.15426667 4.89913226,8.72722222 4.9563767,9.32011111 C5.1449767,11.2904444 6.79279893,12.7236 8.74422115,12.7828889 C9.85639893,12.7036667 10.6552656,12.3208444 11.4541323,11.5899556 C10.8055323,11.9574444 10.1645989,12.1266222 9.5333767,12.0509778 C8.88682115,11.9743111 8.25253226,11.6415778 7.63255448,11.0067778 L7.69899893,10.9418667 C8.30313226,11.5608222 8.91902115,11.8843556 9.54411004,11.9589778 C10.1446656,12.0300222 10.7564656,11.8726 11.3769545,11.5270889 C10.8862878,11.7182444 10.43651,11.6497556 10.0112656,11.4734222 C9.10966559,11.0093333 9.35142115,10.1184667 8.86279893,9.4484 C8.61439893,9.03133333 8.27911004,8.80235556 7.90446559,8.65822222 C7.53186559,8.52124444 7.13524337,8.50846667 6.8055767,8.61068889 C6.02459893,8.85244444 5.36475448,8.35513333 5.2323767,7.59715556 L5.2323767,7.59715556 Z M6.87968782,9.81077778 L7.20628782,10.0837111 L7.56559893,9.85626667 L7.40715448,10.2513556 L7.73426559,10.5227556 L7.31004337,10.4936222 L7.15262115,10.8892222 L7.04886559,10.4762444 L6.62413226,10.4491556 L6.9849767,10.2232444 L6.87968782,9.81077778 L6.87968782,9.81077778 Z M14.4492434,18.2384889 C14.9654656,17.9256889 15.3850878,17.5224222 15.68971,17.0102889 C16.7001767,15.3093111 16.2161545,13.1800222 14.6766878,11.9804444 C13.7321545,11.3865333 12.8612211,11.2245111 11.7853323,11.3420667 C12.5254211,11.4284444 13.1423323,11.6707111 13.6074434,12.1046444 C14.0837989,12.5482889 14.3996656,13.1907556 14.5253989,14.0688444 L14.43391,14.0826444 C14.3107323,13.2260222 14.0050878,12.6014444 13.5440656,12.1721111 C13.1019545,11.7596444 12.5151989,11.5260667 11.8103767,11.4386667 C12.3189323,11.5741111 12.6424656,11.8950889 12.8806434,12.2881333 C13.33451,13.1948444 12.6128211,13.7713778 12.6117989,14.6004 C12.5657989,15.0839111 12.7017545,15.4672444 12.9189767,15.8040667 C13.1387545,16.1347556 13.4510434,16.3795778 13.7776434,16.4920222 C14.5509545,16.7572889 14.7896434,17.549 14.4492434,18.2384889 L14.4492434,18.2384889 Z M14.4267545,15.479 L14.3245323,15.0660222 L13.8997989,15.0374 L14.2611545,14.8125111 L14.1568878,14.4000444 L14.4824656,14.674 L14.8427989,14.4480889 L14.6828211,14.8416444 L15.0094211,15.1145778 L14.5846878,15.0844222 L14.4267545,15.479 L14.4267545,15.479 Z M18.9424211,10.8437333 C18.8233323,10.2523778 18.58771,9.72031111 18.2099989,9.2598 C16.9541989,7.72953333 14.7875989,7.46017778 13.1346656,8.49926667 C12.2560656,9.18568889 11.8067989,9.94928889 11.5512434,11.0011556 C11.8839767,10.3346667 12.3219989,9.83684444 12.8877989,9.54704444 C13.4673989,9.2506 14.1793767,9.17188889 15.0482656,9.35282222 L15.0293545,9.4438 C14.1819323,9.26746667 13.49091,9.3426 12.9302211,9.62933333 C12.3920211,9.90533333 11.9723989,10.3776 11.6503989,11.0103556 C11.9504211,10.5779556 12.3623767,10.3832222 12.8136878,10.2927556 C13.8205767,10.1746889 14.1170211,11.0497111 14.8964656,11.3328667 C15.3349989,11.5403778 15.7413323,11.5434444 16.1328434,11.454 C16.5182211,11.3599556 16.8545323,11.1498889 17.0712434,10.8805333 C17.5843989,10.2436889 18.4098434,10.2891778 18.9424211,10.8437333 L18.9424211,10.8437333 Z M16.3398434,9.92577778 L15.9171545,9.88131111 L15.7454211,10.2707778 L15.6569989,9.85422222 L15.2337989,9.81128889 L15.60231,9.59866667 L15.5118434,9.18313333 L15.8282211,9.46782222 L16.19571,9.25417778 L16.0229545,9.64211111 L16.3398434,9.92577778 L16.3398434,9.92577778 Z M5.82833226,16.1812667 C6.58528782,16.3167111 7.2793767,15.8674444 7.31975448,15.0501778 C7.33611004,14.7056889 7.48484337,14.3376889 7.74091004,14.0346 C8.00413226,13.7315111 8.33482115,13.4953778 8.81219893,13.4054222 C9.60799893,13.1749111 10.36291,13.708 11.10811,13.0205556 C11.4188656,12.6816889 11.6376211,12.2814889 11.6253545,11.7555556 C11.7377989,12.4568 11.6764656,13.0859778 11.4035323,13.6252 C11.1193545,14.1874222 10.6041545,14.6550889 9.81602115,15.0103111 L9.85435448,15.0951556 C10.6634434,14.7302222 11.1924434,14.2482444 11.4863323,13.6671111 C11.7735767,13.0997778 11.83491,12.4399333 11.7112211,11.7044444 C12.1241989,12.7052 12.2100656,13.5873778 11.9028878,14.6596889 C11.1786434,16.4726 9.26811004,17.5290667 7.35246559,17.0307333 C6.77593226,16.8809778 6.27248782,16.5901556 5.82833226,16.1812667 L5.82833226,16.1812667 Z M8.47231004,15.3921111 L8.89602115,15.4345333 L8.98444337,15.8510889 L9.15566559,15.4611111 L9.5793767,15.5055778 L9.26146559,15.2219111 L9.43422115,14.8334667 L9.06673226,15.0476222 L8.74984337,14.7634444 L8.84082115,15.1789778 L8.47231004,15.3921111 L8.47231004,15.3921111 Z M11.6442656,6.40473333 L11.2818878,6.6286 L10.9588656,6.35208889 L11.0595545,6.76506667 L10.6966656,6.9874 L11.1208878,7.01908889 L11.2195323,7.43308889 L11.3815545,7.03953333 L11.8057767,7.07326667 L11.4812211,6.79828889 L11.6442656,6.40473333 L11.6442656,6.40473333 Z" id="Fill-3" fill="#FFFFFF" sketch:type="MSShapeGroup" mask="url(#mask-2)"></path>
                            </g>
                        </g>
                    </g>
                </g>
            </g>
        </g>
    </g>
</svg>