<?xml version="1.0" encoding="UTF-8" standalone="no"?>
<svg width="25px" height="25px" viewBox="0 0 25 25" version="1.1" xmlns="http://www.w3.org/2000/svg" xmlns:xlink="http://www.w3.org/1999/xlink" xmlns:sketch="http://www.bohemiancoding.com/sketch/ns">
    <!-- Generator: Sketch 3.3.2 (12043) - http://www.bohemiancoding.com/sketch -->
    <title>USA Copy</title>
    <desc>Created with Sketch.</desc>
    <defs>
        <circle id="path-1" cx="11.5" cy="11.5" r="11.5"></circle>
    </defs>
    <g id="Page-1" stroke="none" stroke-width="1" fill="none" fill-rule="evenodd" sketch:type="MSPage">
        <g id="Sign-Up-with-Phone-/-Select-region" sketch:type="MSArtboardGroup" transform="translate(-376.000000, -284.000000)">
            <g id="Sign-Up-Form" sketch:type="MSLayerGroup" transform="translate(362.000000, 230.000000)">
                <g id="phone-Input">
                    <g id="selecting" transform="translate(0.000000, 45.000000)">
                        <g id="USA" transform="translate(0.000000, 7.000000)">
                            <g id="USA-Copy" transform="translate(15.000000, 3.000000)">
                                <mask id="mask-2" sketch:name="Oval 1" fill="white">
                                    <use xlink:href="#path-1"></use>
                                </mask>
                                <use id="Oval-1" stroke="#D9D9D9" fill="#FFFFFF" sketch:type="MSShapeGroup" xlink:href="#path-1"></use>
                                <path d="M-4.6966,-0.6854 L11.8383556,-0.6854 L11.8383556,12.1792667 L-4.6966,12.1792667 L-4.6966,-0.6854 Z M-2.59286667,0.304111111 L-3.17042222,0.304111111 L-3.33602222,-0.190644444 L-3.50111111,0.304111111 L-4.07815556,0.304111111 L-3.62428889,0.6348 L-3.78937778,1.21133333 L-3.33602222,0.840266667 L-2.88215556,1.16993333 L-3.04724444,0.6348 L-2.59286667,0.304111111 L-2.59286667,0.304111111 Z M11.0553333,10.9009778 L10.5186667,10.9009778 L10.3126889,10.4062222 L10.1470889,10.9009778 L9.61195556,10.9009778 L10.0653111,11.2311556 L9.85882222,11.8082 L10.3126889,11.4371333 L10.7665556,11.8082 L10.6009556,11.2311556 L11.0553333,10.9009778 L11.0553333,10.9009778 Z M8.33417778,10.9009778 L7.75611111,10.9009778 L7.59153333,10.4062222 L7.42593333,10.9009778 L6.84888889,10.9009778 L7.30275556,11.2311556 L7.13766667,11.8082 L7.59153333,11.4371333 L8.04488889,11.8082 L7.8798,11.2311556 L8.33417778,10.9009778 L8.33417778,10.9009778 Z M5.5706,10.9009778 L5.03495556,10.9009778 L4.86986667,10.4062222 L4.70477778,10.9009778 L4.12773333,10.9009778 L4.5816,11.2311556 L4.37511111,11.8082 L4.86986667,11.4371333 L5.32322222,11.8082 L5.15813333,11.2311556 L5.5706,10.9009778 L5.5706,10.9009778 Z M2.84893333,10.9009778 L2.31277778,10.9009778 L2.1482,10.4062222 L1.94222222,10.9009778 L1.40606667,10.9009778 L1.85993333,11.2311556 L1.65293333,11.8082 L2.1482,11.4371333 L2.60206667,11.8082 L2.39557778,11.2311556 L2.84893333,10.9009778 L2.84893333,10.9009778 Z M0.127777778,10.9009778 L-0.408377778,10.9009778 L-0.614355556,10.4062222 L-0.778933333,10.9009778 L-1.31508889,10.9009778 L-0.861222222,11.2311556 L-1.06822222,11.8082 L-0.614355556,11.4371333 L-0.161,11.8082 L-0.325577778,11.2311556 L0.127777778,10.9009778 L0.127777778,10.9009778 Z M-2.59286667,10.9009778 L-3.17042222,10.9009778 L-3.33602222,10.4062222 L-3.50111111,10.9009778 L-4.07815556,10.9009778 L-3.62428889,11.2311556 L-3.78937778,11.8082 L-3.33602222,11.4371333 L-2.88215556,11.8082 L-3.04724444,11.2311556 L-2.59286667,10.9009778 L-2.59286667,10.9009778 Z M9.61195556,9.5818 L9.0758,9.5818 L8.91071111,9.08704444 L8.74562222,9.5818 L8.16806667,9.5818 L8.62193333,9.91248889 L8.41595556,10.4890222 L8.91071111,10.1179556 L9.36406667,10.4471111 L9.15757778,9.91248889 L9.61195556,9.5818 L9.61195556,9.5818 Z M6.89028889,9.5818 L6.35464444,9.5818 L6.14815556,9.08704444 L5.98357778,9.5818 L5.4464,9.5818 L5.90077778,9.91248889 L5.6948,10.4890222 L6.14815556,10.1179556 L6.60151111,10.4471111 L6.43642222,9.91248889 L6.89028889,9.5818 L6.89028889,9.5818 Z M4.16862222,9.5818 L3.59106667,9.5818 L3.427,9.08704444 L3.26191111,9.5818 L2.68435556,9.5818 L3.13822222,9.91248889 L2.97262222,10.4890222 L3.427,10.1179556 L3.87984444,10.4471111 L3.71526667,9.91248889 L4.16862222,9.5818 L4.16862222,9.5818 Z M1.44746667,9.5818 L0.870422222,9.5818 L0.705333333,9.08704444 L0.540755556,9.5818 L-0.0368,9.5818 L0.416555556,9.91248889 L0.250955556,10.4890222 L0.705333333,10.1179556 L1.15868889,10.4471111 L0.993088889,9.91248889 L1.44746667,9.5818 L1.44746667,9.5818 Z M-1.31508889,9.5818 L-1.85124444,9.5818 L-2.01582222,9.08704444 L-2.18142222,9.5818 L-2.75846667,9.5818 L-2.30511111,9.91248889 L-2.5116,10.4890222 L-2.01582222,10.1179556 L-1.56297778,10.4471111 L-1.76895556,9.91248889 L-1.31508889,9.5818 L-1.31508889,9.5818 Z M9.61195556,6.94293333 L9.0758,6.94293333 L8.91071111,6.44868889 L8.74562222,6.94293333 L8.16806667,6.94293333 L8.62193333,7.27311111 L8.41595556,7.80824444 L8.91071111,7.47908889 L9.36406667,7.80824444 L9.15757778,7.27311111 L9.61195556,6.94293333 L9.61195556,6.94293333 Z M6.89028889,6.94293333 L6.35464444,6.94293333 L6.14815556,6.44868889 L5.98357778,6.94293333 L5.4464,6.94293333 L5.90077778,7.27311111 L5.6948,7.80824444 L6.14815556,7.47908889 L6.60151111,7.80824444 L6.43642222,7.27311111 L6.89028889,6.94293333 L6.89028889,6.94293333 Z M4.16862222,6.94293333 L3.59106667,6.94293333 L3.427,6.44868889 L3.26191111,6.94293333 L2.68435556,6.94293333 L3.13822222,7.27311111 L2.97262222,7.80824444 L3.427,7.47908889 L3.87984444,7.80824444 L3.71526667,7.27311111 L4.16862222,6.94293333 L4.16862222,6.94293333 Z M1.44746667,6.94293333 L0.870422222,6.94293333 L0.705333333,6.44868889 L0.540755556,6.94293333 L-0.0368,6.94293333 L0.416555556,7.27311111 L0.250955556,7.80824444 L0.705333333,7.47908889 L1.15868889,7.80824444 L0.993088889,7.27311111 L1.44746667,6.94293333 L1.44746667,6.94293333 Z M-1.31508889,6.94293333 L-1.85124444,6.94293333 L-2.01582222,6.44868889 L-2.18142222,6.94293333 L-2.75846667,6.94293333 L-2.30511111,7.27311111 L-2.5116,7.80824444 L-2.01582222,7.47908889 L-1.56297778,7.80824444 L-1.76895556,7.27311111 L-1.31508889,6.94293333 L-1.31508889,6.94293333 Z M9.61195556,4.30406667 L9.0758,4.30406667 L8.91071111,3.76791111 L8.74562222,4.30406667 L8.16806667,4.30406667 L8.62193333,4.63322222 L8.41595556,5.16988889 L8.91071111,4.84022222 L9.36406667,5.16988889 L9.15757778,4.63322222 L9.61195556,4.30406667 L9.61195556,4.30406667 Z M6.89028889,4.30406667 L6.35464444,4.30406667 L6.14815556,3.76791111 L5.98357778,4.30406667 L5.4464,4.30406667 L5.90077778,4.63322222 L5.6948,5.16988889 L6.14815556,4.84022222 L6.60151111,5.16988889 L6.43642222,4.63322222 L6.89028889,4.30406667 L6.89028889,4.30406667 Z M4.16862222,4.30406667 L3.59106667,4.30406667 L3.427,3.76791111 L3.26191111,4.30406667 L2.68435556,4.30406667 L3.13822222,4.63322222 L2.97262222,5.16988889 L3.427,4.84022222 L3.87984444,5.16988889 L3.71526667,4.63322222 L4.16862222,4.30406667 L4.16862222,4.30406667 Z M1.44746667,4.30406667 L0.870422222,4.30406667 L0.705333333,3.76791111 L0.540755556,4.30406667 L-0.0368,4.30406667 L0.416555556,4.63322222 L0.250955556,5.16988889 L0.705333333,4.84022222 L1.15868889,5.16988889 L0.993088889,4.63322222 L1.44746667,4.30406667 L1.44746667,4.30406667 Z M-1.31508889,4.30406667 L-1.85124444,4.30406667 L-2.01582222,3.76791111 L-2.18142222,4.30406667 L-2.75846667,4.30406667 L-2.30511111,4.63322222 L-2.5116,5.16988889 L-2.01582222,4.84022222 L-1.56297778,5.16988889 L-1.76895556,4.63322222 L-1.31508889,4.30406667 L-1.31508889,4.30406667 Z M9.61195556,1.62328889 L9.0758,1.62328889 L8.91071111,1.12904444 L8.74562222,1.62328889 L8.16806667,1.62328889 L8.62193333,1.95397778 L8.41595556,2.53102222 L8.91071111,2.15995556 L9.36406667,2.53102222 L9.15757778,1.95397778 L9.61195556,1.62328889 L9.61195556,1.62328889 Z M6.89028889,1.62328889 L6.35464444,1.62328889 L6.14815556,1.12904444 L5.98357778,1.62328889 L5.4464,1.62328889 L5.90077778,1.95397778 L5.6948,2.53102222 L6.14815556,2.15995556 L6.60151111,2.53102222 L6.43642222,1.95397778 L6.89028889,1.62328889 L6.89028889,1.62328889 Z M4.16862222,1.62328889 L3.59106667,1.62328889 L3.427,1.12904444 L3.26191111,1.62328889 L2.68435556,1.62328889 L3.13822222,1.95397778 L2.97262222,2.53102222 L3.427,2.15995556 L3.87984444,2.53102222 L3.71526667,1.95397778 L4.16862222,1.62328889 L4.16862222,1.62328889 Z M1.44746667,1.62328889 L0.870422222,1.62328889 L0.705333333,1.12904444 L0.540755556,1.62328889 L-0.0368,1.62328889 L0.416555556,1.95397778 L0.250955556,2.53102222 L0.705333333,2.15995556 L1.15868889,2.53102222 L0.993088889,1.95397778 L1.44746667,1.62328889 L1.44746667,1.62328889 Z M-1.31508889,1.62328889 L-1.85124444,1.62328889 L-2.01582222,1.12904444 L-2.18142222,1.62328889 L-2.75846667,1.62328889 L-2.30511111,1.95397778 L-2.5116,2.53102222 L-2.01582222,2.15995556 L-1.56297778,2.53102222 L-1.76895556,1.95397778 L-1.31508889,1.62328889 L-1.31508889,1.62328889 Z M11.0553333,8.26262222 L10.5186667,8.26262222 L10.3126889,7.76786667 L10.1470889,8.26262222 L9.61195556,8.26262222 L10.0653111,8.5928 L9.85882222,9.12793333 L10.3126889,8.79877778 L10.7665556,9.12793333 L10.6009556,8.5928 L11.0553333,8.26262222 L11.0553333,8.26262222 Z M8.33417778,8.26262222 L7.75611111,8.26262222 L7.59153333,7.76786667 L7.42593333,8.26262222 L6.84888889,8.26262222 L7.30275556,8.5928 L7.13766667,9.12793333 L7.59153333,8.79877778 L8.04488889,9.12793333 L7.8798,8.5928 L8.33417778,8.26262222 L8.33417778,8.26262222 Z M5.5706,8.26262222 L5.03495556,8.26262222 L4.86986667,7.76786667 L4.70477778,8.26262222 L4.12773333,8.26262222 L4.5816,8.5928 L4.37511111,9.12793333 L4.86986667,8.79877778 L5.32322222,9.12793333 L5.15813333,8.5928 L5.5706,8.26262222 L5.5706,8.26262222 Z M2.84893333,8.26262222 L2.31277778,8.26262222 L2.1482,7.76786667 L1.94222222,8.26262222 L1.40606667,8.26262222 L1.85993333,8.5928 L1.65293333,9.12793333 L2.1482,8.79877778 L2.60206667,9.12793333 L2.39557778,8.5928 L2.84893333,8.26262222 L2.84893333,8.26262222 Z M0.127777778,8.26262222 L-0.408377778,8.26262222 L-0.614355556,7.76786667 L-0.778933333,8.26262222 L-1.31508889,8.26262222 L-0.861222222,8.5928 L-1.06822222,9.12793333 L-0.614355556,8.79877778 L-0.161,9.12793333 L-0.325577778,8.5928 L0.127777778,8.26262222 L0.127777778,8.26262222 Z M-2.59286667,8.26262222 L-3.17042222,8.26262222 L-3.33602222,7.76786667 L-3.50111111,8.26262222 L-4.07815556,8.26262222 L-3.62428889,8.5928 L-3.78937778,9.12793333 L-3.33602222,8.79877778 L-2.88215556,9.12793333 L-3.04724444,8.5928 L-2.59286667,8.26262222 L-2.59286667,8.26262222 Z M11.0553333,5.62324444 L10.5186667,5.62324444 L10.3126889,5.08708889 L10.1470889,5.62324444 L9.61195556,5.62324444 L10.0653111,5.95393333 L9.85882222,6.48906667 L10.3126889,6.15991111 L10.7665556,6.48906667 L10.6009556,5.95393333 L11.0553333,5.62324444 L11.0553333,5.62324444 Z M8.33417778,5.62324444 L7.75611111,5.62324444 L7.59153333,5.08708889 L7.42593333,5.62324444 L6.84888889,5.62324444 L7.30275556,5.95393333 L7.13766667,6.48906667 L7.59153333,6.15991111 L8.04488889,6.48906667 L7.8798,5.95393333 L8.33417778,5.62324444 L8.33417778,5.62324444 Z M5.5706,5.62324444 L5.03495556,5.62324444 L4.86986667,5.08708889 L4.70477778,5.62324444 L4.12773333,5.62324444 L4.5816,5.95393333 L4.37511111,6.48906667 L4.86986667,6.15991111 L5.32322222,6.48906667 L5.15813333,5.95393333 L5.5706,5.62324444 L5.5706,5.62324444 Z M2.84893333,5.62324444 L2.31277778,5.62324444 L2.1482,5.08708889 L1.94222222,5.62324444 L1.40606667,5.62324444 L1.85993333,5.95393333 L1.65293333,6.48906667 L2.1482,6.15991111 L2.60206667,6.48906667 L2.39557778,5.95393333 L2.84893333,5.62324444 L2.84893333,5.62324444 Z M0.127777778,5.62324444 L-0.408377778,5.62324444 L-0.614355556,5.08708889 L-0.778933333,5.62324444 L-1.31508889,5.62324444 L-0.861222222,5.95393333 L-1.06822222,6.48906667 L-0.614355556,6.15991111 L-0.161,6.48906667 L-0.325577778,5.95393333 L0.127777778,5.62324444 L0.127777778,5.62324444 Z M-2.59286667,5.62324444 L-3.17042222,5.62324444 L-3.33602222,5.08708889 L-3.50111111,5.62324444 L-4.07815556,5.62324444 L-3.62428889,5.95393333 L-3.78937778,6.48906667 L-3.33602222,6.15991111 L-2.88215556,6.48906667 L-3.04724444,5.95393333 L-2.59286667,5.62324444 L-2.59286667,5.62324444 Z M11.0553333,2.98488889 L10.5186667,2.98488889 L10.3126889,2.44873333 L10.1470889,2.98488889 L9.61195556,2.98488889 L10.0653111,3.31455556 L9.85882222,3.85071111 L10.3126889,3.52053333 L10.7665556,3.85071111 L10.6009556,3.31455556 L11.0553333,2.98488889 L11.0553333,2.98488889 Z M8.33417778,2.98488889 L7.75611111,2.98488889 L7.59153333,2.44873333 L7.42593333,2.98488889 L6.84888889,2.98488889 L7.30275556,3.31455556 L7.13766667,3.85071111 L7.59153333,3.52053333 L8.04488889,3.85071111 L7.8798,3.31455556 L8.33417778,2.98488889 L8.33417778,2.98488889 Z M5.5706,2.98488889 L5.03495556,2.98488889 L4.86986667,2.44873333 L4.70477778,2.98488889 L4.12773333,2.98488889 L4.5816,3.31455556 L4.37511111,3.85071111 L4.86986667,3.52053333 L5.32322222,3.85071111 L5.15813333,3.31455556 L5.5706,2.98488889 L5.5706,2.98488889 Z M2.84893333,2.98488889 L2.31277778,2.98488889 L2.1482,2.44873333 L1.94222222,2.98488889 L1.40606667,2.98488889 L1.85993333,3.31455556 L1.65293333,3.85071111 L2.1482,3.52053333 L2.60206667,3.85071111 L2.39557778,3.31455556 L2.84893333,2.98488889 L2.84893333,2.98488889 Z M0.127777778,2.98488889 L-0.408377778,2.98488889 L-0.614355556,2.44873333 L-0.778933333,2.98488889 L-1.31508889,2.98488889 L-0.861222222,3.31455556 L-1.06822222,3.85071111 L-0.614355556,3.52053333 L-0.161,3.85071111 L-0.325577778,3.31455556 L0.127777778,2.98488889 L0.127777778,2.98488889 Z M-2.59286667,2.98488889 L-3.17042222,2.98488889 L-3.33602222,2.44873333 L-3.50111111,2.98488889 L-4.07815556,2.98488889 L-3.62428889,3.31455556 L-3.78937778,3.85071111 L-3.33602222,3.52053333 L-2.88215556,3.85071111 L-3.04724444,3.31455556 L-2.59286667,2.98488889 L-2.59286667,2.98488889 Z M11.0553333,0.304111111 L10.5186667,0.304111111 L10.3126889,-0.190644444 L10.1470889,0.304111111 L9.61195556,0.304111111 L10.0653111,0.6348 L9.85882222,1.21133333 L10.3126889,0.840266667 L10.7665556,1.16993333 L10.6009556,0.6348 L11.0553333,0.304111111 L11.0553333,0.304111111 Z M8.33417778,0.304111111 L7.75611111,0.304111111 L7.59153333,-0.190644444 L7.42593333,0.304111111 L6.84888889,0.304111111 L7.30275556,0.6348 L7.13766667,1.21133333 L7.59153333,0.840266667 L8.04488889,1.16993333 L7.8798,0.6348 L8.33417778,0.304111111 L8.33417778,0.304111111 Z M5.5706,0.304111111 L5.03495556,0.304111111 L4.86986667,-0.190644444 L4.70477778,0.304111111 L4.12773333,0.304111111 L4.5816,0.6348 L4.37511111,1.21133333 L4.86986667,0.840266667 L5.32322222,1.16993333 L5.15813333,0.6348 L5.5706,0.304111111 L5.5706,0.304111111 Z M2.84893333,0.304111111 L2.31277778,0.304111111 L2.1482,-0.190644444 L1.94222222,0.304111111 L1.40606667,0.304111111 L1.85993333,0.6348 L1.65293333,1.21133333 L2.1482,0.840266667 L2.60206667,1.16993333 L2.39557778,0.6348 L2.84893333,0.304111111 L2.84893333,0.304111111 Z M0.127777778,0.304111111 L-0.408377778,0.304111111 L-0.614355556,-0.190644444 L-0.778933333,0.304111111 L-1.31508889,0.304111111 L-0.861222222,0.6348 L-1.06822222,1.21133333 L-0.614355556,0.840266667 L-0.161,1.16993333 L-0.325577778,0.6348 L0.127777778,0.304111111 L0.127777778,0.304111111 Z" id="Fill-1" fill="#3B3A6D" sketch:type="MSShapeGroup" mask="url(#mask-2)"></path>
                                <path d="M11.8383556,-0.6854 L31.7052444,-0.6854 L31.7052444,1.16942222 L11.8383556,1.16942222 L11.8383556,-0.6854 Z M11.8383556,2.98488889 L31.7052444,2.98488889 L31.7052444,4.84022222 L11.8383556,4.84022222 L11.8383556,2.98488889 Z M11.8383556,6.65466667 L31.7052444,6.65466667 L31.7052444,8.51 L11.8383556,8.51 L11.8383556,6.65466667 Z M11.8383556,10.3239333 L31.7052444,10.3239333 L31.7052444,12.1792667 L11.8383556,12.1792667 L11.8383556,10.3239333 Z M-4.6966,13.9932 L31.7052444,13.9932 L31.7052444,15.8490444 L-4.6966,15.8490444 L-4.6966,13.9932 Z M-4.6966,17.664 L31.7052444,17.664 L31.7052444,19.5193333 L-4.6966,19.5193333 L-4.6966,17.664 Z M-4.6966,21.3337778 L31.7052444,21.3337778 L31.7052444,23.1886 L-4.6966,23.1886 L-4.6966,21.3337778 Z" id="Fill-2" fill="#CF2B38" sketch:type="MSShapeGroup" mask="url(#mask-2)"></path>
                            </g>
                        </g>
                    </g>
                </g>
            </g>
        </g>
    </g>
</svg>